<?xml version="1.0" encoding="UTF-8" standalone="no"?><!DOCTYPE svg PUBLIC "-//W3C//DTD SVG 1.1//EN" "http://www.w3.org/Graphics/SVG/1.1/DTD/svg11.dtd"><svg width="100%" height="100%" viewBox="0 0 2901 802" version="1.1" xmlns="http://www.w3.org/2000/svg" xmlns:xlink="http://www.w3.org/1999/xlink" xml:space="preserve" xmlns:serif="http://www.serif.com/" style="fill-rule:evenodd;clip-rule:evenodd;stroke-linejoin:round;stroke-miterlimit:1.41421;"><g id="Livello-1" serif:id="Livello 1"><rect x="0" y="0.006" width="664.369" height="801.672" style="fill:#a1a1a4;"/><rect x="693.159" y="0" width="2207.48" height="801.494" style="fill:#a1a1a4;"/><rect x="798.494" y="158.619" width="53.35" height="214.006" style="fill:#fff;"/><path d="M876.394,158.315l53.35,0l0,169.144l83.663,0l0,45.166l-137.013,0l0,-214.31Z" style="fill:#fff;fill-rule:nonzero;"/><path d="M1257.72,323.821c-7.881,12.431 -15.459,24.553 -32.434,36.378c-9.094,6.363 -30.01,18.791 -59.716,18.791c-56.684,0 -102.456,-41.225 -102.456,-113.672c0,-63.353 43.043,-113.369 103.668,-113.369c24.554,0 46.379,8.488 62.444,21.219c14.853,11.822 21.825,23.644 27.888,34.253l-42.438,21.219c-3.031,-6.969 -6.669,-14.247 -16.065,-22.128c-10.307,-8.185 -20.613,-10.61 -29.404,-10.61c-34.556,0 -52.743,32.132 -52.743,67.9c0,46.985 23.947,70.325 52.743,70.325c27.888,0 39.104,-19.4 46.379,-31.828l42.134,21.522Z" style="fill:#fff;fill-rule:nonzero;"/><path d="M1461.42,158.618l0,119.434c-0.306,20.609 -0.606,41.222 -12.431,60.622c-23.035,36.981 -70.625,38.8 -79.719,38.8c-16.066,0 -35.162,-3.941 -49.712,-11.516c-41.225,-21.219 -41.225,-58.809 -40.922,-87.906l0,-119.434l53.953,0l0,133.378c0,10.912 0.306,20.003 3.944,26.675c6.665,11.215 21.218,14.547 34.556,14.547c36.375,0 36.375,-24.857 36.678,-41.529l0,-133.071l53.653,0Z" style="fill:#fff;fill-rule:nonzero;"/><path d="M1675.72,323.821c-7.879,12.431 -15.457,24.553 -32.435,36.378c-9.094,6.363 -30.006,18.791 -59.712,18.791c-56.688,0 -102.457,-41.225 -102.457,-113.672c0,-63.353 43.041,-113.369 103.666,-113.369c24.556,0 46.378,8.488 62.447,21.219c14.853,11.822 21.822,23.644 27.887,34.253l-42.437,21.219c-3.031,-6.969 -6.669,-14.247 -16.069,-22.128c-10.306,-8.185 -20.612,-10.61 -29.4,-10.61c-34.559,0 -52.744,32.132 -52.744,67.9c0,46.985 23.944,70.325 52.744,70.325c27.888,0 39.1,-19.4 46.378,-31.828l42.132,21.522Z" style="fill:#fff;fill-rule:nonzero;"/><path d="M1884.27,323.821c-7.878,12.431 -15.457,24.553 -32.435,36.378c-9.09,6.363 -30.006,18.791 -59.712,18.791c-56.688,0 -102.456,-41.225 -102.456,-113.672c0,-63.353 43.04,-113.369 103.665,-113.369c24.556,0 46.378,8.488 62.447,21.219c14.853,11.822 21.822,23.644 27.888,34.253l-42.438,21.219c-3.031,-6.969 -6.669,-14.247 -16.069,-22.128c-10.306,-8.185 -20.612,-10.61 -29.4,-10.61c-34.559,0 -52.743,32.132 -52.743,67.9c0,46.985 23.943,70.325 52.743,70.325c27.888,0 39.1,-19.4 46.378,-31.828l42.132,21.522Z" style="fill:#fff;fill-rule:nonzero;"/><path d="M2090.09,158.618l0,214.006l-53.653,0l0,-91.241l-78.203,0l0,91.241l-53.959,0l0,-214.006l53.959,0l0,77.296l78.203,0l0,-77.296l53.653,0Z" style="fill:#fff;fill-rule:nonzero;"/><rect x="2113.73" y="158.619" width="53.35" height="214.006" style="fill:#fff;"/><path d="M2285.6,209.542c-2.728,10.913 -5.759,22.128 -8.791,33.041c-4.55,16.069 -12.731,41.228 -17.581,57.29l54.26,0l-27.888,-90.331Zm28.797,-50.925l78.812,214.01l-56.987,0l-10.61,-34.254l-78.812,0l-10.612,34.254l-56.985,0l79.419,-214.01l55.775,0Z" style="fill:#fff;fill-rule:nonzero;"/><rect x="2408.36" y="158.619" width="53.35" height="214.006" style="fill:#fff;"/><path d="M2624.49,212.27c-9.094,-9.7 -23.038,-15.762 -37.588,-15.762c-32.434,0 -53.047,28.494 -53.047,67.294c0,50.925 28.494,69.721 53.654,69.721c25.462,0 52.743,-18.19 54.259,-63.053c0.909,-22.431 -5.153,-45.162 -17.278,-58.2m-36.981,166.419c-67.904,0 -106.397,-52.141 -106.397,-113.978c0,-57.894 36.675,-112.763 105.487,-112.763c12.731,0 26.069,1.819 39.103,6.366c65.475,22.738 69.719,93.972 69.719,108.519c0,36.984 -16.975,70.328 -40.619,89.422c-20.915,17.278 -45.165,22.434 -67.293,22.434" style="fill:#fff;fill-rule:nonzero;"/><path d="M852.45,472.533l0,125.797l16.369,0c28.494,-0.603 67.9,-2.122 67.9,-63.653c0,-14.856 -1.516,-29.709 -11.216,-43.047c-14.55,-19.4 -35.162,-19.097 -51.531,-19.097l-21.522,0Zm-53.956,-45.165l68.203,0c26.069,0.306 65.475,0.909 92.756,25.162c22.129,20.003 30.616,50.016 30.616,80.022c0,18.491 -2.728,32.131 -5.456,41.225c-19.703,66.081 -79.419,67.297 -101.85,67.597l-84.269,0l0,-214.006Z" style="fill:#fff;fill-rule:nonzero;"/><path d="M1000.98,427.368l48.197,0l0,43.653c-0.607,15.153 -3.335,28.797 -12.732,40.618c-3.94,4.544 -15.156,15.763 -35.465,18.185l0,-21.522c13.944,-4.244 18.794,-11.519 19.4,-31.222l-19.4,0l0,-49.712Z" style="fill:#fff;fill-rule:nonzero;"/><path d="M1153.75,478.292c-2.728,10.913 -5.759,22.128 -8.79,33.041c-4.547,16.069 -12.731,41.228 -17.581,57.29l54.259,0l-27.888,-90.331Zm28.797,-50.925l78.813,214.01l-56.988,0l-10.609,-34.254l-78.813,0l-10.609,34.254l-56.987,0l79.418,-214.01l55.775,0Z" style="fill:#fff;fill-rule:nonzero;"/><path d="M1327.14,467.382l0,57.894l44.257,0c7.578,-0.3 32.131,-0.909 32.131,-29.4c0,-27.281 -19.703,-28.191 -30.919,-28.494l-45.469,0Zm-53.653,-40.015l96.394,0c22.431,0.306 50.319,0.609 70.022,21.828c10.003,11.215 16.975,28.187 16.975,47.587c0,43.047 -29.403,53.656 -43.953,59.11l49.409,85.484l-59.109,0l-42.438,-76.391l-33.647,0l0,76.391l-53.653,0l0,-214.009Z" style="fill:#fff;fill-rule:nonzero;"/><path d="M1636.93,621.368c-8.791,8.184 -26.979,24.856 -63.053,24.856c-59.713,0 -96.391,-48.497 -96.391,-111.547c0,-68.812 44.556,-114.584 105.484,-114.584c56.688,0 84.272,36.375 94.272,49.409l-40.619,24.556c-7.575,-11.521 -20.003,-30.312 -49.709,-30.312c-40.619,0 -56.078,33.644 -56.078,69.412c0,24.25 6.669,43.954 16.972,54.563c8.187,8.791 22.737,15.462 39.106,15.462c9.7,0 20.613,-2.428 29.4,-8.184c13.947,-9.097 15.763,-20.616 17.281,-31.831l-47.897,0l0,-40.619l93.063,0l0,118.825l-41.831,0l0,-20.006Z" style="fill:#fff;fill-rule:nonzero;"/><path d="M1702.1,427.368l158.234,0l0,41.528l-104.884,0l0,38.8l97.909,0l0,40.618l-97.909,0l0,50.925l114.281,0l0,42.135l-167.631,0l0,-214.006Z" style="fill:#fff;fill-rule:nonzero;"/><path d="M1890.64,427.368l52.44,0l46.378,78.815c16.975,30.006 22.129,39.71 32.132,58.5l-2.425,-137.315l51.228,0l0,214.006l-52.441,0l-40.012,-67.594c-19.4,-31.831 -23.038,-38.5 -37.588,-66.994l1.516,134.588l-51.228,0l0,-214.006Z" style="fill:#fff;fill-rule:nonzero;"/><path d="M2087.67,427.065l164.903,0l0,42.438l-55.472,0l0,171.872l-53.653,0l0,-171.872l-55.778,0l0,-42.438Z" style="fill:#fff;fill-rule:nonzero;"/><path d="M2397.16,481.02c-9.093,-9.7 -23.037,-15.762 -37.587,-15.762c-32.435,0 -53.047,28.494 -53.047,67.294c0,50.925 28.494,69.721 53.653,69.721c25.463,0 52.744,-18.19 54.259,-63.053c0.91,-22.431 -5.153,-45.162 -17.278,-58.2m-36.981,166.419c-67.903,0 -106.397,-52.141 -106.397,-113.978c0,-57.894 36.675,-112.763 105.488,-112.763c12.731,0 26.068,1.819 39.103,6.366c65.475,22.738 69.719,93.972 69.719,108.519c0,36.984 -16.975,70.328 -40.619,89.422c-20.916,17.278 -45.166,22.434 -67.294,22.434" style="fill:#fff;fill-rule:nonzero;"/><path d="M348.95,801.641c0,0 0.531,-28.844 0.825,-40.747c0,-1.343 0.016,-53.29 0.016,-53.29l0,-1.503l0.453,0c4.99,-9.032 12.765,-17.266 24.625,-24.069l2.253,-1.291l0,25.369l0.012,0l-0.015,55.381l0,0.019l-0.006,0.278c-0.31,12.416 -0.841,39.853 -0.841,39.853l-27.322,0Z" style="fill:#fff;fill-rule:nonzero;"/><path d="M292.245,801.723c0,0 -0.559,-22.653 -0.559,-32.59c0,-3.035 0.022,-5.922 0.066,-8.625c0.584,-35.263 7.515,-64.188 21.09,-87.031c13.566,-22.85 33.785,-39.535 60.635,-50.291l0.003,0l0.318,-0.128l0.044,-0.016l0.281,-0.087l-0.009,0.003c23.091,-7.685 40.209,-24.591 51.719,-51.525c11.484,-26.931 17.203,-63.869 17.2,-111.141c0,-15.112 -0.853,-31.359 -1.76,-48.584l-0.068,-1.297c-3.088,-45.831 -11.816,-88.45 -24.194,-123.781c-12.369,-35.341 -28.422,-63.372 -45.978,-80.003c-11.706,-11.091 -23.991,-17.082 -36.303,-17.079c-11.691,0 -23.178,5.388 -34.153,15.666c-10.963,10.263 -21.335,25.391 -30.635,44.581c-18.612,38.372 -32.956,92.944 -39.834,157.238l0,0.003c-2.2,20.344 -3.21,44.619 -3.544,54.091c-0.119,3.531 -0.181,7.031 -0.181,10.49c0,38.228 7.447,71.966 20.756,98.041c12.944,25.35 31.372,43.434 53.897,51.603l0,-0.028l2.012,0.719l0.116,0.04l0.031,0.013c6.585,2.709 11.944,3.828 21.025,6.325l0.057,0.015l0.059,0.019l2.772,1.003l-2.078,1.675c-10.922,8.763 -19.988,25.653 -20.641,27.025l-0.553,1.128l-1.203,-0.343c-3.263,-0.919 -4.35,-1.182 -6.447,-1.866l-1.234,-0.406l0.018,-0.103c-29.043,-10.125 -52.909,-33.429 -69.547,-65.413c-16.878,-32.45 -26.371,-73.859 -26.375,-119.819c0,-3.893 0.069,-7.825 0.207,-11.787l0,-0.01l0,0.013c0.434,-12.425 1.5,-36.409 3.784,-57.538l0,0.004l0,-0.004c5.944,-55.531 17.034,-104.256 31.878,-143.515c14.85,-39.26 33.435,-69.075 54.553,-86.769c14.069,-11.784 29.328,-18.175 45.247,-18.175l0.013,0c16.722,-0.003 33.128,7.019 48.397,20.219c15.281,13.209 29.481,32.594 41.959,57.522c23.5,46.965 38.869,109.431 43.384,176.35l0,0.028l0.082,1.628l0,-0.013c0.937,17.829 1.825,34.691 1.825,51.094c-0.004,55.316 -7.407,99.585 -22.229,132.625c-14.806,33.013 -37.14,54.822 -66.734,64.819c-27.128,10.9 -42.437,27.481 -51.184,45.981c-8.744,18.516 -10.838,39.031 -11.141,57.585c-0.044,2.462 -0.059,5.103 -0.059,7.906c0,9.778 0.628,32.515 0.628,32.515l-27.413,0Z" style="fill:#fff;fill-rule:nonzero;"/></g></svg>