<?xml version="1.0" encoding="UTF-8" standalone="no"?>
<svg width="12px" height="12px" viewBox="0 0 12 12" version="1.1" xmlns="http://www.w3.org/2000/svg" xmlns:xlink="http://www.w3.org/1999/xlink">
    <!-- Generator: Sketch 40.3 (33839) - http://www.bohemiancoding.com/sketch -->
    <title>Combined Shape</title>
    <desc>Created with Sketch.</desc>
    <defs></defs>
    <g id="Page-1" stroke="none" stroke-width="1" fill="none" fill-rule="evenodd" fill-opacity="0.9">
        <path d="M4.75,4.75 L0.242406607,4.75 C-0.433843851,4.75 -1,5.30964406 -1,6 C-1,6.69516897 -0.443755615,7.25 0.242406607,7.25 L4.75,7.25 L4.75,11.7575934 C4.75,12.4338439 5.30964406,13 6,13 C6.69516897,13 7.25,12.4437556 7.25,11.7575934 L7.25,7.25 L11.7575934,7.25 C12.4338439,7.25 13,6.69035594 13,6 C13,5.30483103 12.4437556,4.75 11.7575934,4.75 L7.25,4.75 L7.25,0.242406607 C7.25,-0.433843851 6.69035594,-1 6,-1 C5.30483103,-1 4.75,-0.443755615 4.75,0.242406607 L4.75,4.75 Z" id="Combined-Shape" fill="#FFFFFF" transform="translate(6.000000, 6.000000) rotate(-315.000000) translate(-6.000000, -6.000000) "></path>
    </g>
</svg>